<?xml version="1.0" encoding="UTF-8"?>
<svg width="110px" height="72px" viewBox="0 0 110 72" version="1.1" xmlns="http://www.w3.org/2000/svg" xmlns:xlink="http://www.w3.org/1999/xlink">
    <!-- Generator: Sketch 52.4 (67378) - http://www.bohemiancoding.com/sketch -->
    <title>powered-by-elife-footer</title>
    <desc>Created with Sketch.</desc>
    <defs>
        <polygon id="path-1" points="0.00668674699 0.0495933735 36.9502739 0.0495933735 36.9502739 36.9999552 0.00668674699 36.9999552"></polygon>
        <polygon id="path-3" points="0.00668674699 0.0495933735 36.9502739 0.0495933735 36.9502739 36.9999552 0.00668674699 36.9999552"></polygon>
    </defs>
    <g id="-" stroke="none" stroke-width="1" fill="none" fill-rule="evenodd">
        <g id="organisms/footer-eLife" transform="translate(-665.000000, -48.000000)">
            <rect fill="#FFFFFF" x="0" y="0" width="1440" height="276"></rect>
            <g id="atoms/logos/powered-by-elife" transform="translate(678.000000, 55.000000)">
                <g id="Group">
                    <g id="Group-3" fill="#A0A1A5">
                        <path d="M7.3125,4.09375 C7.3125,5.2604225 6.91406648,6.1549448 6.1171875,6.77734375 C5.32030852,7.3997427 4.19792391,7.7109375 2.75,7.7109375 L1.4375,7.7109375 L1.4375,12.15625 L0,12.15625 L0,0.734375 L3.0234375,0.734375 C5.8828268,0.734375 7.3125,1.85415547 7.3125,4.09375 Z M1.4375,6.4765625 L2.5859375,6.4765625 C3.72135984,6.4765625 4.54426828,6.29297059 5.0546875,5.92578125 C5.56510672,5.55859191 5.8203125,4.96875406 5.8203125,4.15625 C5.8203125,3.42187133 5.5833357,2.87239766 5.109375,2.5078125 C4.6354143,2.14322734 3.89583836,1.9609375 2.890625,1.9609375 L1.4375,1.9609375 L1.4375,6.4765625 Z M16.9375,7.8515625 C16.9375,9.25261117 16.5833369,10.3463502 15.875,11.1328125 C15.1666631,11.9192748 14.1875063,12.3125 12.9375,12.3125 C12.1614545,12.3125 11.4739613,12.1315122 10.875,11.7695312 C10.2760387,11.4075503 9.81510578,10.8880242 9.4921875,10.2109375 C9.16926922,9.53385078 9.0078125,8.74740031 9.0078125,7.8515625 C9.0078125,6.45572219 9.35676734,5.36849348 10.0546875,4.58984375 C10.7526077,3.81119402 11.7317645,3.421875 12.9921875,3.421875 C14.2005269,3.421875 15.1601527,3.81900645 15.8710938,4.61328125 C16.5820348,5.40755605 16.9375,6.48697234 16.9375,7.8515625 Z M10.4609375,7.8515625 C10.4609375,8.92969289 10.673175,9.74869512 11.0976562,10.3085938 C11.5221375,10.8684924 12.1484334,11.1484375 12.9765625,11.1484375 C13.7942749,11.1484375 14.4166645,10.8684924 14.84375,10.3085938 C15.2708355,9.74869512 15.484375,8.92969289 15.484375,7.8515625 C15.484375,6.77343211 15.2695334,5.9622423 14.8398438,5.41796875 C14.4101541,4.8736952 13.7812541,4.6015625 12.953125,4.6015625 C11.2916584,4.6015625 10.4609375,5.684885 10.4609375,7.8515625 Z M26.015625,12.15625 L24.546875,7.328125 C24.4114577,6.92708133 24.213543,6.16927641 23.953125,5.0546875 L23.890625,5.0546875 C23.6718739,6.07031758 23.4791675,6.83333078 23.3125,7.34375 L21.7734375,12.15625 L20.1796875,12.15625 L17.828125,3.578125 L19.28125,3.578125 C19.8229194,5.68751055 20.2356757,7.29166117 20.5195312,8.390625 C20.8033868,9.48958883 20.9713539,10.2656227 21.0234375,10.71875 L21.0859375,10.71875 L21.1953125,10.234375 C21.3567716,9.48957961 21.5130201,8.88281484 21.6640625,8.4140625 L23.1875,3.578125 L24.71875,3.578125 L26.1953125,8.4140625 C26.2473961,8.59635508 26.3033851,8.79036355 26.3632812,8.99609375 C26.4231774,9.20182395 26.4791664,9.40494691 26.53125,9.60546875 C26.5833336,9.80599059 26.6302081,10.0013011 26.671875,10.1914062 C26.7135419,10.3815114 26.7447916,10.5520826 26.765625,10.703125 L26.8359375,10.703125 C26.8828127,10.3072897 27.072915,9.45833984 27.40625,8.15625 L28.609375,3.578125 L30.046875,3.578125 L27.6640625,12.15625 L26.015625,12.15625 Z M35.234375,12.3125 C33.9479102,12.3125 32.9388057,11.923181 32.2070312,11.1445312 C31.4752568,10.3658815 31.109375,9.29427766 31.109375,7.9296875 C31.109375,6.55468062 31.4505174,5.45963949 32.1328125,4.64453125 C32.8151076,3.82942301 33.7369734,3.421875 34.8984375,3.421875 C35.9765679,3.421875 36.8359343,3.76952777 37.4765625,4.46484375 C38.1171907,5.16015973 38.4375,6.10155656 38.4375,7.2890625 L38.4375,8.140625 L32.5625,8.140625 C32.5885418,9.1145882 32.8359352,9.85416414 33.3046875,10.359375 C33.7734398,10.8645859 34.4374957,11.1171875 35.296875,11.1171875 C35.7552106,11.1171875 36.1901021,11.0768233 36.6015625,10.9960938 C37.0130229,10.9153642 37.4947889,10.7578137 38.046875,10.5234375 L38.046875,11.7578125 C37.5729143,11.9609385 37.1276062,12.1041662 36.7109375,12.1875 C36.2942688,12.2708338 35.8020862,12.3125 35.234375,12.3125 Z M34.8828125,4.5703125 C34.2109341,4.5703125 33.6796895,4.78645617 33.2890625,5.21875 C32.8984355,5.65104383 32.666667,6.25260031 32.59375,7.0234375 L36.9609375,7.0234375 C36.9505208,6.22135016 36.7656268,5.61198125 36.40625,5.1953125 C36.0468732,4.77864375 35.5390658,4.5703125 34.8828125,4.5703125 Z M44.609375,3.421875 C44.9895852,3.421875 45.3255194,3.45312469 45.6171875,3.515625 L45.4453125,4.8125 C45.1276026,4.73958297 44.8177098,4.703125 44.515625,4.703125 C44.0624977,4.703125 43.641929,4.82812375 43.2539062,5.078125 C42.8658835,5.32812625 42.5625011,5.67317488 42.34375,6.11328125 C42.1249989,6.55338762 42.015625,7.04166398 42.015625,7.578125 L42.015625,12.15625 L40.609375,12.15625 L40.609375,3.578125 L41.765625,3.578125 L41.921875,5.1484375 L41.984375,5.1484375 C42.3125016,4.58072633 42.7005186,4.15104313 43.1484375,3.859375 C43.5963564,3.56770687 44.0833307,3.421875 44.609375,3.421875 Z M50.7109375,12.3125 C49.4244727,12.3125 48.4153682,11.923181 47.6835938,11.1445312 C46.9518193,10.3658815 46.5859375,9.29427766 46.5859375,7.9296875 C46.5859375,6.55468062 46.9270799,5.45963949 47.609375,4.64453125 C48.2916701,3.82942301 49.2135359,3.421875 50.375,3.421875 C51.4531304,3.421875 52.3124968,3.76952777 52.953125,4.46484375 C53.5937532,5.16015973 53.9140625,6.10155656 53.9140625,7.2890625 L53.9140625,8.140625 L48.0390625,8.140625 C48.0651043,9.1145882 48.3124977,9.85416414 48.78125,10.359375 C49.2500023,10.8645859 49.9140582,11.1171875 50.7734375,11.1171875 C51.2317731,11.1171875 51.6666646,11.0768233 52.078125,10.9960938 C52.4895854,10.9153642 52.9713514,10.7578137 53.5234375,10.5234375 L53.5234375,11.7578125 C53.0494768,11.9609385 52.6041687,12.1041662 52.1875,12.1875 C51.7708313,12.2708338 51.2786487,12.3125 50.7109375,12.3125 Z M50.359375,4.5703125 C49.6874966,4.5703125 49.156252,4.78645617 48.765625,5.21875 C48.374998,5.65104383 48.1432295,6.25260031 48.0703125,7.0234375 L52.4375,7.0234375 C52.4270833,6.22135016 52.2421893,5.61198125 51.8828125,5.1953125 C51.5234357,4.77864375 51.0156283,4.5703125 50.359375,4.5703125 Z M59.125,12.3125 C58.0104111,12.3125 57.1458364,11.9270872 56.53125,11.15625 C55.9166636,10.3854128 55.609375,9.29427789 55.609375,7.8828125 C55.609375,6.48176383 55.9179657,5.38802477 56.5351562,4.6015625 C57.1523468,3.81510023 58.0208277,3.421875 59.140625,3.421875 C60.2916724,3.421875 61.1770802,3.84374578 61.796875,4.6875 L61.8984375,4.6875 C61.8828124,4.58333281 61.8619793,4.37369949 61.8359375,4.05859375 C61.8098957,3.74348801 61.796875,3.53125055 61.796875,3.421875 L61.796875,0 L63.203125,0 L63.203125,12.15625 L62.0703125,12.15625 L61.859375,11.0078125 L61.796875,11.0078125 C61.1979137,11.8776085 60.3072976,12.3125 59.125,12.3125 Z M59.3515625,11.1484375 C60.2057334,11.1484375 60.8294251,10.9153669 61.2226562,10.4492188 C61.6158874,9.98307059 61.8125,9.21875531 61.8125,8.15625 L61.8125,7.8984375 C61.8125,6.7057232 61.6132832,5.85547129 61.2148438,5.34765625 C60.8164043,4.83984121 60.1901084,4.5859375 59.3359375,4.5859375 C58.6119755,4.5859375 58.0520853,4.87369504 57.65625,5.44921875 C57.2604147,6.02474246 57.0625,6.84634883 57.0625,7.9140625 C57.0625,8.97656781 57.2591126,9.78124727 57.6523438,10.328125 C58.0455749,10.8750027 58.6119755,11.1484375 59.3515625,11.1484375 Z M74.1484375,3.4375 C75.2786515,3.4375 76.1510386,3.82681902 76.765625,4.60546875 C77.3802114,5.38411848 77.6875,6.47134719 77.6875,7.8671875 C77.6875,9.28386125 77.3750031,10.3789024 76.75,11.1523438 C76.1249969,11.9257851 75.257818,12.3125 74.1484375,12.3125 C73.5703096,12.3125 73.0546898,12.2083344 72.6015625,12 C72.1484352,11.7916656 71.7786473,11.4817729 71.4921875,11.0703125 L71.3828125,11.0703125 C71.2213534,11.6953156 71.1250002,12.0572912 71.09375,12.15625 L70.0859375,12.15625 L70.0859375,0 L71.4921875,0 L71.4921875,2.953125 C71.4921875,3.54166961 71.4661461,4.13020539 71.4140625,4.71875 L71.4921875,4.71875 C72.0703154,3.86457906 72.9557232,3.4375 74.1484375,3.4375 Z M73.9140625,4.6015625 C73.0494748,4.6015625 72.4296894,4.84635172 72.0546875,5.3359375 C71.6796856,5.82552328 71.4921875,6.65364 71.4921875,7.8203125 L71.4921875,7.8828125 C71.4921875,9.05469336 71.6835918,9.89192457 72.0664062,10.3945312 C72.4492207,10.8971379 73.0755165,11.1484375 73.9453125,11.1484375 C74.7161497,11.1484375 75.2903627,10.8658882 75.6679688,10.3007812 C76.0455748,9.73567426 76.234375,8.91927617 76.234375,7.8515625 C76.234375,6.76822375 76.0442727,5.95573187 75.6640625,5.4140625 C75.2838523,4.87239312 74.7005248,4.6015625 73.9140625,4.6015625 Z M78.4296875,3.578125 L79.9375,3.578125 L81.7890625,8.4609375 C82.1796895,9.52344281 82.4192704,10.3020809 82.5078125,10.796875 L82.5703125,10.796875 C82.6171877,10.6041657 82.7239575,10.2434922 82.890625,9.71484375 C83.0572925,9.18619527 83.1979161,8.76302242 83.3125,8.4453125 L85.0546875,3.578125 L86.5703125,3.578125 L82.875,13.34375 C82.5156232,14.2916714 82.0885441,14.9713521 81.59375,15.3828125 C81.0989559,15.7942729 80.4869828,16 79.7578125,16 C79.3671855,16 78.9791686,15.9557296 78.59375,15.8671875 L78.59375,14.75 C78.854168,14.8125003 79.1666648,14.84375 79.53125,14.84375 C79.9791689,14.84375 80.3593734,14.7200533 80.671875,14.4726562 C80.9843766,14.2252592 81.2395823,13.8437526 81.4375,13.328125 L81.8828125,12.1875 L78.4296875,3.578125 Z" id="Powered-by"></path>
                    </g>
                    <g id="elife_logo_rgb" transform="translate(0.000000, 22.000000)">
                        <circle id="Oval" fill="#FFFFFF" cx="18.5344828" cy="18.5344828" r="17.7931034"></circle>
                        <path d="M22.9245871,26.6890969 C22.7197029,25.2686409 22.3601787,23.870739 21.8959233,22.5010854 C21.573468,21.5553801 21.2235459,20.6146993 20.8514048,19.6772565 C20.6841478,19.850431 20.5205754,20.0265086 20.3637022,20.2086155 C19.7375494,20.9114743 19.2061903,21.6852332 18.761921,22.5093477 C19.2531964,23.9002155 19.5983174,25.3384244 19.7930412,26.7874636 C20.1779108,29.5569173 20.0841218,32.3412209 19.7523993,35.0670181 C20.5233667,35.0100748 21.2814941,34.8996495 22.0235433,34.7388684 C22.4965076,33.5264229 22.8160599,32.2604954 22.9786274,30.9813928 C23.1573847,29.5535677 23.1282431,28.1088829 22.9245871,26.6890969" id="Fill-1" fill="#0A9DD9"></path>
                        <path d="M26.2008361,32.0207754 C26.4125311,31.4568135 26.6026771,30.8860407 26.7607784,30.3085688 C27.0798842,29.1550763 27.2732681,27.9744521 27.2954871,26.7968425 C27.319381,25.6182281 27.1642942,24.450779 26.8878402,23.299073 C26.6150706,22.1446874 26.2037391,21.0080546 25.8777109,19.8017501 C25.5746832,18.7072107 25.3306087,17.5398733 25.3200015,16.3438409 C24.6310994,16.7416623 23.958387,17.15746 23.3192823,17.6132296 C22.8113705,17.9627052 22.3223281,18.3352929 21.8578495,18.7318862 C22.2922933,19.8477513 22.7137853,20.9769033 23.0461778,22.1420077 C23.4607473,23.5836778 23.7876688,25.0657665 23.9188617,26.5748753 C24.0549673,28.0817511 24.0043882,29.6102877 23.737648,31.0972891 C23.5238315,32.2956663 23.1684384,33.4611056 22.705188,34.5760776 C23.7040403,34.3143618 24.6690616,33.9616483 25.5906497,33.5246365 C25.6709285,33.2977565 25.774878,33.0810371 25.864759,32.8611913 C25.9825535,32.5829508 26.0935371,32.3025888 26.2008361,32.0207754" id="Fill-2" fill="#0961AB"></path>
                        <path d="M34.0188149,16.3691863 C33.8324652,17.0356461 33.5997793,17.6748623 33.3856279,18.3043648 C33.1753843,18.9355422 32.9658106,19.5500831 32.7954274,20.1670804 C32.459127,21.3996235 32.2747871,22.6463466 32.2791415,23.9375078 C32.2794765,24.5816369 32.3203417,25.2346983 32.4149123,25.8851916 C32.46203,26.2106616 32.5195316,26.5355733 32.5860771,26.8598151 C32.6069563,26.9618665 32.6299569,27.0623546 32.6523993,27.1629544 C33.751963,25.3534976 34.5220373,23.3044324 34.8645902,21.0858772 C35.2292506,18.7237355 35.0808631,16.3623753 34.4587298,14.1265138 C34.3897279,14.8891073 34.2270487,15.6465647 34.0188149,16.3691863" id="Fill-3" fill="#732060"></path>
                        <path d="M11.903939,7.13220295 C11.991922,8.53077482 12.2506232,9.90690434 12.7078443,11.2064396 C13.0827768,12.3340284 13.6275343,13.3808917 14.2443083,14.4073224 C14.3614328,14.2175114 14.475766,14.0260257 14.5971333,13.8387827 C15.0307956,13.1821484 15.4965024,12.5469516 15.9832,11.9286144 C16.4721308,11.3121754 16.9790377,10.7089115 17.5223437,10.1388087 C17.5405432,10.1198276 17.5598593,10.1021863 17.5781705,10.0832052 C17.5695731,10.0274901 17.5594127,9.97255659 17.5514853,9.91672984 C17.3362173,8.40672775 17.3718347,6.82750052 17.7809332,5.34005245 C18.1057332,4.14067044 18.6689136,3.018441 19.3772435,2.02595295 C16.7690175,1.88404134 14.2542454,2.36359317 11.9828781,3.33799335 C11.9378817,3.90173192 11.8910989,4.46100436 11.8765839,5.02329144 C11.8535833,5.72860667 11.8586077,6.43291701 11.903939,7.13220295" id="Fill-4" fill="#0A9DD9"></path>
                        <path d="M18.5922076,5.53589271 C18.3418804,6.72232291 18.3515943,7.94336568 18.5340362,9.14520412 C18.7631491,8.93038272 18.993267,8.71634295 19.2301958,8.50956062 C21.4175997,6.6010672 23.9595035,5.05656419 26.7253843,4.18555515 C24.987944,3.19250883 23.0675036,2.5126506 21.0303854,2.19812266 C20.7510282,2.15502441 20.4670934,2.11829041 20.1868431,2.08948379 C20.1466478,2.08535261 20.1068991,2.08390112 20.0671505,2.08021655 C19.7662443,2.54893799 19.4886737,3.02491691 19.2604539,3.52523629 C18.9607759,4.1712635 18.735794,4.84643228 18.5922076,5.53589271" id="Fill-5" fill="#0961AB"></path>
                        <path d="M14.1023966,31.0797595 C13.7196484,29.8253324 13.1041026,28.6549803 12.3994573,27.5292896 C12.0172673,26.9121806 11.6035911,26.3081352 11.1806476,25.7037547 C10.9596853,26.9303801 10.8254778,28.1745352 10.7909769,29.4237147 C10.7697627,30.1808371 10.7847242,30.9396344 10.8372014,31.6967569 C10.8635517,32.0752622 10.8988341,32.4533211 10.9440538,32.8303749 C10.9635932,32.9900395 10.9846957,33.1539468 11.0007738,33.3190824 C12.1558293,33.9045934 13.383683,34.3550036 14.6663585,34.6585895 C14.6564214,34.097754 14.6196874,33.545739 14.5424231,32.9978552 C14.4508673,32.3439006 14.2899746,31.7060241 14.1023966,31.0797595" id="Fill-6" fill="#CE0D4E"></path>
                        <path d="M23.5117729,6.51241431 C22.2435007,7.32960635 21.0759399,8.29317617 19.9910028,9.33680152 C19.5864821,9.72691887 19.1999377,10.1351241 18.8223255,10.5508101 C18.6937006,10.6922752 18.5623961,10.8311721 18.4370092,10.9749819 C18.249543,11.1886867 18.0660963,11.4057411 17.8829845,11.6230188 C17.5809618,11.9814266 17.2840751,12.3436306 17.0011451,12.7171116 C16.5440356,13.3153511 16.1143929,13.9341348 15.7028381,14.5644189 C15.4670259,14.9190305 15.2408158,15.2804529 15.0207468,15.6451132 C15.6320498,16.5901485 16.2718244,17.5378635 16.8641463,18.5363808 C17.3281783,19.3238731 17.7634036,20.1395019 18.1447004,20.9814811 C18.5110355,20.4023343 18.9205806,19.8509893 19.3742288,19.339058 C19.6748001,19.0017527 19.9923427,18.6820887 20.320939,18.3757115 C20.6572393,18.0621884 21.0057099,17.763292 21.3656808,17.480697 C21.7733278,17.1608097 22.19348,16.8595685 22.623011,16.5774201 C23.5262879,16.0009529 24.461721,15.4975073 25.4078728,15.0350384 C25.5430853,14.0589634 25.8205442,13.1077872 26.230201,12.23555 C26.7547492,11.066761 27.4504622,10.0101838 28.2017786,9.01870064 C28.5759296,8.52106097 28.9676101,8.03994598 29.369786,7.57055464 C29.6106226,7.29320731 29.8533574,7.01641826 30.1033496,6.74789157 C29.2774486,5.9331559 28.3731668,5.21388398 27.4049075,4.59610511 C26.0333558,5.08291442 24.7271214,5.72190746 23.5117729,6.51241431 Z" id="Fill-7" fill="#CE0D4E"></path>
                        <path d="M33.0882946,16.0386918 C34.2436851,13.5526148 33.5989977,11.7463959 33.4135412,11.363871 C33.3280147,11.1876817 33.2427113,11.0117158 33.1508205,10.8384296 C32.7741016,10.1271967 32.3435656,9.43818291 31.8593244,8.7769708 C31.4430801,8.20854283 30.9923349,7.67528559 30.5161326,7.17117002 C30.3115834,7.44438619 30.1072575,7.71648575 29.9095191,7.99450299 C29.5580339,8.48767659 29.2184956,8.98721441 28.9029627,9.49925737 C28.2739068,10.5239016 27.7285911,11.5901926 27.3199392,12.6837271 C27.120861,13.2325042 26.9614198,13.788427 26.835363,14.3456897 C26.8336882,14.3541753 26.8323484,14.3625494 26.8305619,14.371035 C26.7435838,14.7776771 26.685524,15.1880038 26.6580572,15.5996703 C26.6482317,15.7454897 26.6420908,15.8916442 26.640081,16.0376869 C26.6013373,17.1725332 26.8006388,18.3169817 27.104448,19.4739354 C27.412165,20.628991 27.7653251,21.8194407 28.0045986,23.0575665 C28.249678,24.2929009 28.3508361,25.5783678 28.2493431,26.8429554 C28.153656,28.1081014 27.8758621,29.3457805 27.4760309,30.5274096 C27.2772876,31.1192849 27.047393,31.6978734 26.7968425,32.2651849 C26.6704508,32.5481148 26.5405977,32.8292584 26.4040455,33.106829 C26.4031523,33.1086155 26.4020357,33.1105136 26.4012542,33.1124117 C28.7315746,31.8462609 30.7408911,30.0323379 32.2354851,27.814341 C32.1843477,27.7211103 32.1445991,27.6233018 32.1065252,27.5246001 C32.0464556,27.3677269 31.9864977,27.2025914 31.930336,27.0420336 C31.8166727,26.7183501 31.7117184,26.3905354 31.6165896,26.0581429 C31.4275603,25.3939162 31.2740366,24.7121598 31.1844905,24.0143254 C31.0024953,22.6211129 31.121853,21.1556606 31.5367574,19.8081144 C31.9289962,18.4494028 32.5378427,17.2227773 33.0882946,16.0386918" id="Fill-8" fill="#273B81"></path>
                        <path d="M19.1320523,31.1564655 C19.0629388,29.7448302 18.9163377,28.343132 18.6709233,26.9662209 C18.4968555,26.0284431 18.2784613,25.1019422 17.9994392,24.1967672 C17.8695861,23.7756102 17.7281211,23.3585843 17.5695731,22.9479227 C17.5023577,22.7700587 17.4264333,22.5957675 17.3540818,22.420025 C16.8994287,21.3148785 16.3552296,20.2470243 15.7280717,19.2124429 C15.2739769,18.4471697 14.7837064,17.6910521 14.2974554,16.9198614 C14.0337298,16.5016073 13.7717906,16.0789987 13.5172206,15.6461181 C13.502259,15.6203261 13.486181,15.5950925 13.4707727,15.5691888 C12.738884,14.3104071 12.0978812,12.9545986 11.6906808,11.5265502 C11.285267,10.0969386 11.115107,8.61886944 11.1049465,7.16056294 C11.0984706,6.43046064 11.1339764,5.70348463 11.1978423,4.98153303 C11.2408288,4.52721489 11.2906263,4.07323172 11.3549388,3.62282146 C10.6157925,3.97732136 9.90545287,4.38485667 9.22894424,4.84263606 C8.76033447,6.05686799 8.31874478,7.27724086 7.99617784,8.52776015 C7.65675111,9.82673714 7.42261374,11.1487147 7.35573328,12.4712505 C7.2881829,13.7925582 7.38453988,15.1117444 7.67885852,16.3831429 C7.82456639,17.0194563 8.02442617,17.6410314 8.25856354,18.2505479 C8.48789989,18.8619625 8.76133934,19.4587505 9.06838647,20.0421401 C9.55620064,20.9753402 10.1355707,21.8678983 10.7349268,22.7621313 C10.8862173,22.9882296 11.038736,23.2145513 11.1917013,23.4414312 C11.3122871,23.6172855 11.4335428,23.7944796 11.5549102,23.9712271 C12.2048452,24.9196121 12.8560086,25.8854149 13.4414079,26.9100592 C14.13098,28.1258543 14.7044324,29.440686 15.0396162,30.8229565 C15.2137957,31.5119703 15.2963076,32.2218633 15.3294687,32.9262853 C15.358052,33.5504285 15.3311436,34.1775862 15.253991,34.7894474 C15.4938227,34.8371235 15.734436,34.8815616 15.977394,34.9191888 C16.2024876,34.9540248 16.4300374,34.9809332 16.6563591,35.0065019 C16.7114043,35.0127544 16.7666727,35.0220217 16.8214946,35.0279394 C16.9580469,35.0418961 17.0938175,35.0492652 17.2299231,35.0599839 C17.884771,35.1111212 18.5344828,35.1266411 19.1763788,35.1020773 C19.1874325,34.4933423 19.1960298,33.8861705 19.1960298,33.2804502 C19.1918986,32.5704456 19.1734758,31.8621157 19.1320523,31.1564655 Z" id="Fill-9" fill="#629F43"></path>
                        <path d="M10.3541972,32.965647 L10.3545679,32.965647 C10.3490076,32.9348798 10.3512317,32.950078 10.3541972,32.965647" id="Fill-10" fill="#165B31"></path>
                        <path d="M10.3524376,32.9531938 L10.3520669,32.9531938 C10.3546617,32.9691335 10.3576272,32.9850731 10.3524376,32.9531938" id="Fill-11" fill="#165B31"></path>
                        <g id="Group-15">
                            <g id="Fill-12-Clipped">
                                <mask id="mask-2" fill="white">
                                    <use xlink:href="#path-1"></use>
                                </mask>
                                <g id="path-1"></g>
                                <path d="M6.84254819,28.5548614 C6.69755723,27.7293826 6.46073494,26.9250783 6.16183735,26.1454036 C5.56404217,24.5834909 4.73365964,23.1165301 3.91386445,21.5981928 C3.50653012,20.8377982 3.11134337,20.0558945 2.78525301,19.2329789 C2.48056024,18.4654518 2.23058735,17.6686144 2.03466566,16.8614127 C1.50329217,22.1169729 3.49438253,27.0380843 7.03022289,30.4319428 C7.02387048,30.2235392 7.01428614,30.0146898 6.99846084,29.8042801 C6.96681024,29.3844638 6.91476506,28.9674337 6.84254819,28.5548614" id="Fill-12" fill="#6E3F19" mask="url(#mask-2)"></path>
                            </g>
                            <g id="Fill-14-Clipped">
                                <mask id="mask-4" fill="white">
                                    <use xlink:href="#path-3"></use>
                                </mask>
                                <g id="path-1"></g>
                                <path d="M20.3685,0.147777108 C10.2358494,-0.896135545 1.14220783,6.49840362 0.0982951805,16.6316114 C-0.945617473,26.7645964 6.44925602,35.8577922 16.5821295,36.9017048 C26.7153373,37.9456174 35.8081988,30.5511898 36.852,20.4180934 C37.8960241,10.2848856 30.5019307,1.19191265 20.3685,0.147777108 Z M35.9604337,20.3261506 C34.9671174,29.9676596 26.3153584,37.0032319 16.6739608,36.0098042 C7.0324518,35.0164879 -0.00312048193,26.3648404 0.990084339,16.7234428 C1.9834006,7.08193373 10.6353826,0.04625 20.2766687,1.03945482 C29.9182892,2.03288253 36.95375,10.684753 35.9604337,20.3261506 Z" id="Fill-14" fill="#A0A1A5" fill-rule="nonzero" mask="url(#mask-4)"></path>
                            </g>
                        </g>
                        <path d="M47.7773188,20.4390683 C47.7597891,19.1400914 46.9060864,18.323681 45.5114224,18.323681 C44.1963674,18.323681 43.3806268,19.1587376 43.2126999,20.4390683 L47.7773188,20.4390683 Z M45.6057696,24.2247923 C46.7198484,24.2247923 47.4433631,23.7047102 47.9999559,23.0181528 L49.5962661,24.2247923 C48.5572185,25.5047881 47.2413819,26.0061123 45.8304165,26.0061123 C43.1396785,26.0061123 40.9864406,24.1316732 40.9864406,21.330175 C40.9864406,18.5277836 43.1396785,16.6540143 45.8304165,16.6540143 C48.3166052,16.6540143 50.0040248,18.3984888 50.0040248,21.4969853 L50.0040248,22.1091815 L43.2126999,22.1091815 C43.3616457,23.4269163 44.3627311,24.2247923 45.6057696,24.2247923 Z" id="Fill-16" fill="#A0A1A5" fill-rule="nonzero"></path>
                        <polyline id="Fill-17" fill="#6B6D70" points="51.8965517 12.6034483 54.1206897 12.6034483 54.1206897 23.7241379 60.0517241 23.7241379 60.0517241 25.9482759 51.8965517 25.9482759 51.8965517 12.6034483"></polyline>
                        <polygon id="Fill-18" fill="#6B6D70" points="61.5344828 25.9482759 63.7586207 25.9482759 63.7586207 12.6034483 61.5344828 12.6034483"></polygon>
                        <polyline id="Fill-19" fill="#6B6D70" points="66.7241379 12.6034483 74.8793103 12.6034483 74.8793103 14.8275862 68.9482759 14.8275862 68.9482759 18.5344828 74.8793103 18.5344828 74.8793103 20.7586207 68.9482759 20.7586207 68.9482759 25.9482759 66.7241379 25.9482759 66.7241379 12.6034483"></polyline>
                        <polyline id="Fill-20" fill="#6B6D70" points="77.1034483 12.6034483 86 12.6034483 86 14.8275862 79.3275862 14.8275862 79.3275862 17.7931034 85.2586207 17.7931034 85.2586207 20.0172414 79.3275862 20.0172414 79.3275862 23.7241379 86 23.7241379 86 25.9482759 77.1034483 25.9482759 77.1034483 12.6034483"></polyline>
                        <path d="M10.3521785,32.9531938 C10.2864146,32.5687708 10.2231071,32.1466089 10.1768825,31.7589479 C10.0839868,30.9837376 10.0296116,30.2032795 10.0121936,29.4214816 C9.97769264,27.8572159 10.0916909,26.2882608 10.3395617,24.73918 C10.3496105,24.6764308 10.3612225,24.6139048 10.3716062,24.5509321 C10.285968,24.4288949 10.2001064,24.3076392 10.1149148,24.184597 C9.32340309,23.0650473 8.56516407,21.8908989 7.92416129,20.6336804 C7.60427398,20.0054061 7.31643124,19.3559176 7.07525966,18.6865549 C6.83833091,18.0158522 6.65521915,17.3242704 6.5232447,16.6246495 C6.25829092,15.2246261 6.21619755,13.7912183 6.36558995,12.394098 C6.62049491,9.98126557 7.35919454,7.69091713 8.30534636,5.51679996 C4.51057852,8.24862639 1.69110407,14.212822 2.65422725,16.5164572 C2.98036716,17.2964686 3.37562059,18.0445471 3.80392345,18.7775524 C4.23311955,19.5105578 4.66689344,20.2473593 5.08458922,21.0069381 C5.91607291,22.5226345 6.7185267,24.1275421 7.19026278,25.8626377 C7.42752649,26.7269474 7.58629776,27.6141463 7.66188724,28.5043597 C7.69873283,28.9496339 7.71369445,29.395913 7.70688355,29.8404056 C7.70364565,30.0617029 7.69382008,30.2852332 7.67997504,30.5088751 L7.65362486,30.8398162 C7.64659066,30.8995508 7.63721176,30.9590621 7.62559983,31.0185734 C8.46244285,31.7487874 9.37398213,32.3993924 10.3520669,32.9531938 C10.3511737,32.9485044 10.3505038,32.9439266 10.3521785,32.9531938" id="Fill-21" fill="#046535"></path>
                    </g>
                </g>
            </g>
        </g>
    </g>
</svg>